<svg width="61" height="72" viewBox="0 0 61 72" fill="none" xmlns="http://www.w3.org/2000/svg">
<path d="M36.8076 0.5C41.5252 0.5 45.8362 1.14593 49.7344 2.44531H49.7334C53.6264 3.67892 56.9197 5.46945 59.6016 7.82422L59.8623 8.05273L59.7393 8.37695L54.46 22.2969L54.2285 22.9053L53.7002 22.5264C50.7829 20.4335 48.108 18.9901 45.6738 18.1787L45.666 18.1758L45.6592 18.1729C43.2929 17.3011 40.5693 16.8604 37.4805 16.8604C31.8231 16.8604 27.5219 18.5218 24.5029 21.7871C21.5445 24.9922 20.0284 29.653 20.0283 35.8477C20.0283 42.1027 21.5431 46.8271 24.5 50.0967L24.7861 50.3926C27.7879 53.4006 31.9969 54.9316 37.4805 54.9316C40.3796 54.9316 42.9581 54.5715 45.2217 53.8584L45.6699 53.7109C48.1078 52.8348 50.7839 51.3577 53.7002 49.2656L54.2285 48.8867L54.46 49.4951L59.7393 63.415L59.8623 63.7393L59.6016 63.9678C56.9202 66.3221 53.6275 68.1447 49.7344 69.4424L49.7266 69.4443C45.8307 70.678 41.5227 71.292 36.8076 71.292C29.3823 71.2919 22.9299 69.8392 17.4678 66.9131L17.4658 66.9111C12.0712 63.9863 7.87417 59.8551 4.88379 54.5244L4.88184 54.5205C1.95479 49.1868 0.5 42.9569 0.5 35.8477C0.500047 28.7389 1.95462 22.5404 4.88281 17.2695L4.88379 17.2676C7.87417 11.9369 12.0712 7.80566 17.4658 4.88086L17.4678 4.87891C22.9299 1.9528 29.3823 0.50005 36.8076 0.5Z" stroke="black"/>
</svg>
