<svg width="334" height="163" viewBox="0 0 334 163" fill="none" xmlns="http://www.w3.org/2000/svg">
<path d="M288.048 92.5V118.612H314.312V92.5H333.072V161.18H314.312V134.108H288.048V161.18H269.288V92.5H288.048Z" stroke="black"/>
<path d="M238.053 91.4441C242.771 91.4441 247.082 92.09 250.98 93.3894H250.979C254.872 94.623 258.165 96.4135 260.847 98.7683L261.108 98.9968L260.985 99.321L255.705 113.241L255.474 113.849L254.946 113.47C252.028 111.378 249.353 109.934 246.919 109.123L246.911 109.12L246.905 109.117C244.538 108.245 241.815 107.804 238.726 107.804C233.068 107.804 228.767 109.466 225.748 112.731C222.79 115.936 221.274 120.597 221.274 126.792C221.274 133.047 222.788 137.771 225.745 141.041L226.031 141.337C229.033 144.345 233.242 145.876 238.726 145.876C241.625 145.876 244.203 145.516 246.467 144.802L246.915 144.655C249.353 143.779 252.029 142.302 254.946 140.21L255.474 139.831L255.705 140.439L260.985 154.359L261.108 154.683L260.847 154.912C258.166 157.266 254.873 159.089 250.98 160.386L250.972 160.388C247.076 161.622 242.768 162.236 238.053 162.236C230.628 162.236 224.175 160.783 218.713 157.857L218.711 157.855C213.317 154.93 209.12 150.799 206.129 145.469L206.127 145.465C203.2 140.131 201.745 133.901 201.745 126.792C201.745 119.683 203.2 113.485 206.128 108.214L206.129 108.212C209.12 102.881 213.317 98.7497 218.711 95.825L218.713 95.823C224.175 92.8969 230.628 91.4441 238.053 91.4441Z" stroke="black"/>
<path d="M201.048 92.5V107.804H180.504V161.18H161.744V107.804H141.2V92.5H201.048Z" stroke="black"/>
<path d="M86.6768 92.5L86.8271 92.6865L117.426 130.654V92.5H134.842V161.18H121.046L120.896 160.993L90.4902 123.05V161.18H72.8818V92.5H86.6768Z" stroke="black"/>
<path d="M19.1641 92.5V131.976C19.1641 136.841 20.1756 140.454 22.1221 142.891C24.0448 145.234 27.0783 146.452 31.3359 146.452C35.5936 146.452 38.6271 145.234 40.5498 142.891C42.4963 140.454 43.5078 136.841 43.5078 131.976V92.5H61.9805V131.88C61.9805 141.878 59.464 149.483 54.3457 154.602C49.2258 159.721 41.5229 162.236 31.3359 162.236C21.1485 162.236 13.4155 159.721 8.23242 154.604C3.04895 149.485 0.5 141.879 0.5 131.88V92.5H19.1641Z" stroke="black"/>
<path d="M216.427 0.5L216.562 0.787109L248.434 68.4668L248.77 69.1797H229.895L229.764 68.8809L223.88 55.4521H194.063L188.249 68.8789L188.118 69.1797H169.244L169.577 68.4678L201.257 0.788086L201.392 0.5H216.427ZM200.226 41.0117H217.959L209.054 19.958L200.226 41.0117Z" stroke="black"/>
<path d="M118.271 0.5L118.421 0.686523L149.02 38.6543V0.5H166.436V69.1797H152.64L152.489 68.9932L122.084 31.0498V69.1797H104.476V0.5H118.271Z" stroke="black"/>
<path d="M92.9541 0.5V69.1797H74.1943V0.5H92.9541Z" stroke="black"/>
<path d="M14.583 0.5L14.7334 0.686523L45.332 38.6543V0.5H62.748V69.1797H48.9521L48.8018 68.9932L18.3965 31.0498V69.1797H0.788086V0.5H14.583Z" stroke="black"/>
</svg>
